<?xml version="1.0" encoding="UTF-8"?>
<svg id="Layer_4" data-name="Layer 4" xmlns="http://www.w3.org/2000/svg" viewBox="0 0 216 182.29">
  <path d="M216,108C216,48.35,167.65,0,108,0S0,48.35,0,108c0,28.78,11.26,54.94,29.62,74.29-8.47-13.89-13.35-30.22-13.35-47.68,0-28.54,13.04-54.04,33.48-70.86,0,0,0,0,0,0h0c15.84-13.04,36.13-20.87,58.25-20.87s42.41,7.83,58.26,20.87c20.44,16.82,33.48,42.32,33.48,70.86,0,17.46-4.88,33.78-13.35,47.68,18.36-19.36,29.62-45.51,29.62-74.29Z"/>
  <path d="M72.01,68.27c33.4-.22,30.23,61.3,35.99,107.83,7.67-46.15,2.69-108.1,35.99-108.38-15.42-8.21-35.99-7.62-35.99-7.62,0,0-20.57-.6-36,8.16Z"/>
</svg>