<?xml version="1.0" encoding="UTF-8"?>
<svg id="Layer_4" data-name="Layer 4" xmlns="http://www.w3.org/2000/svg" viewBox="0 0 216 221.64">
  <g>
    <path d="M216,108C216,48.35,167.65,0,108,0S0,48.35,0,108c0,28.78,11.26,54.94,29.62,74.29-8.47-13.89-13.35-30.22-13.35-47.68,0-28.54,13.04-54.04,33.48-70.86,0,0,0,0,0,0h0c15.84-13.04,36.13-20.87,58.25-20.87s42.41,7.83,58.26,20.87c20.44,16.82,33.48,42.32,33.48,70.86,0,17.46-4.88,33.78-13.35,47.68,18.36-19.36,29.62-45.51,29.62-74.29Z"/>
    <path d="M72.01,68.27c33.4-.22,28.07,61.78,35.99,107.83,7.92-46.05,2.69-108.1,35.99-108.38-15.42-8.21-35.99-7.62-35.99-7.62,0,0-20.57-.6-36,8.16Z"/>
  </g>
  <g>
    <path d="M5.01,208.77c0-5.27,3.07-7.62,7.05-7.62,2.38,0,4.28.93,5.46,2.71,1.18-1.78,3.07-2.71,5.46-2.71,3.98,0,7.05,2.35,7.05,7.62v12.48h-4.88v-12.48c0-2.29-1.12-3.1-2.59-3.1s-2.59.81-2.59,3.1v12.48h-4.88v-12.48c0-2.29-1.14-3.1-2.59-3.1s-2.59.81-2.59,3.1v12.48h-4.88v-12.48Z" style="fill: #231f20;"/>
    <path d="M33.62,201.54h4.88v19.71h-4.88v-19.71Z" style="fill: #231f20;"/>
    <path d="M42.09,213.35v-11.81h4.88v11.81c0,2.41,1.12,3.77,3.53,3.77s3.59-1.33,3.59-3.77v-11.81h4.76v11.81c0,5.06-2.98,8.29-8.32,8.29s-8.44-3.19-8.44-8.29Z" style="fill: #231f20;"/>
    <path d="M61.34,215.43h4.76c0,1.24.75,2.02,2.65,2.02s2.65-.78,2.65-2.02c0-1.3-1.51-1.6-3.32-1.93-2.8-.51-6.39-1.17-6.39-5.97,0-3.74,2.83-6.39,7.08-6.39s6.93,2.5,7.08,6.24h-4.58c-.03-1.15-.75-2.05-2.44-2.05s-2.44,1-2.44,2.02c0,1.3,1.51,1.6,3.35,1.93,2.83.51,6.42,1.17,6.42,5.97,0,3.92-2.95,6.39-7.41,6.39s-7.32-2.38-7.41-6.21Z" style="fill: #231f20;"/>
    <path d="M91.33,206.06h-5.37v-4.52h15.64v4.52h-5.39v15.19h-4.88v-15.19Z"/>
    <path d="M104.95,201.54h4.88v7.44h7.38v-7.44h4.88v19.71h-4.88v-7.75h-7.38v7.75h-4.88v-19.71Z"/>
    <path d="M125.09,211.39c0-5.91,4.34-10.25,10.49-10.25s10.49,4.34,10.49,10.25-4.34,10.25-10.49,10.25-10.49-4.34-10.49-10.25ZM141.12,211.39c0-3.32-2.2-5.73-5.54-5.73s-5.54,2.41-5.54,5.73,2.2,5.73,5.54,5.73,5.54-2.41,5.54-5.73Z"/>
    <path d="M148.75,208.77c0-5.27,3.07-7.62,7.05-7.62,2.38,0,4.28.93,5.46,2.71,1.18-1.78,3.07-2.71,5.46-2.71,3.98,0,7.05,2.35,7.05,7.62v12.48h-4.88v-12.48c0-2.29-1.12-3.1-2.59-3.1s-2.59.81-2.59,3.1v12.48h-4.88v-12.48c0-2.29-1.14-3.1-2.59-3.1s-2.59.81-2.59,3.1v12.48h-4.88v-12.48Z"/>
    <path d="M176.87,209.79c0-5.36,3.04-8.65,8.65-8.65s8.71,3.28,8.71,8.65v11.45h-4.88v-5.61h-7.71v5.61h-4.76v-11.45ZM189.34,211.42v-1.63c0-2.71-1.18-4.13-3.86-4.13s-3.86,1.42-3.86,4.13v1.63h7.71Z"/>
    <path d="M196.76,215.43h4.76c0,1.24.75,2.02,2.65,2.02s2.65-.78,2.65-2.02c0-1.3-1.51-1.6-3.32-1.93-2.8-.51-6.39-1.17-6.39-5.97,0-3.74,2.83-6.39,7.08-6.39s6.93,2.5,7.08,6.24h-4.58c-.03-1.15-.75-2.05-2.44-2.05s-2.44,1-2.44,2.02c0,1.3,1.51,1.6,3.35,1.93,2.83.51,6.42,1.17,6.42,5.97,0,3.92-2.95,6.39-7.41,6.39s-7.32-2.38-7.41-6.21Z"/>
  </g>
</svg>